<mxfile host="app.diagrams.net" modified="2023-07-16T19:27:47.472Z" agent="Mozilla/5.0 (Windows NT 10.0; Win64; x64) AppleWebKit/537.36 (KHTML, like Gecko) Chrome/114.0.0.0 Safari/537.36" etag="havfECSua1v0_JJ3WWSf" version="21.6.2" type="google">
  <diagram name="Page-1" id="w0UfUpUUfux1YmTYL3Qv">
    <mxGraphModel grid="1" page="1" gridSize="10" guides="1" tooltips="1" connect="1" arrows="1" fold="1" pageScale="1" pageWidth="850" pageHeight="1100" math="0" shadow="0">
      <root>
        <mxCell id="0" />
        <mxCell id="1" parent="0" />
        <mxCell id="uigYJwYVuBVHVjmUfmwh-1" value="Publisher" style="rounded=1;whiteSpace=wrap;html=1;" vertex="1" parent="1">
          <mxGeometry x="-200" y="360" width="120" height="60" as="geometry" />
        </mxCell>
        <mxCell id="uigYJwYVuBVHVjmUfmwh-2" value="" style="endArrow=classic;html=1;rounded=0;exitX=1;exitY=0.5;exitDx=0;exitDy=0;" edge="1" parent="1" source="uigYJwYVuBVHVjmUfmwh-1">
          <mxGeometry width="50" height="50" relative="1" as="geometry">
            <mxPoint x="-20" y="390" as="sourcePoint" />
            <mxPoint x="-50" y="390" as="targetPoint" />
          </mxGeometry>
        </mxCell>
        <mxCell id="uigYJwYVuBVHVjmUfmwh-3" value="Load Balancer" style="rounded=1;whiteSpace=wrap;html=1;" vertex="1" parent="1">
          <mxGeometry x="-50" y="360" width="120" height="60" as="geometry" />
        </mxCell>
        <mxCell id="uigYJwYVuBVHVjmUfmwh-4" value="FrontEnd&lt;br&gt;Service" style="rounded=1;whiteSpace=wrap;html=1;" vertex="1" parent="1">
          <mxGeometry x="100" y="360" width="120" height="60" as="geometry" />
        </mxCell>
        <mxCell id="uigYJwYVuBVHVjmUfmwh-5" value="MetaData" style="shape=cylinder3;whiteSpace=wrap;html=1;boundedLbl=1;backgroundOutline=1;size=15;" vertex="1" parent="1">
          <mxGeometry x="290" y="130" width="60" height="80" as="geometry" />
        </mxCell>
        <mxCell id="uigYJwYVuBVHVjmUfmwh-6" value="MetaData Service&lt;br&gt;(Distributed)" style="rounded=1;whiteSpace=wrap;html=1;" vertex="1" parent="1">
          <mxGeometry x="260" y="230" width="120" height="60" as="geometry" />
        </mxCell>
        <mxCell id="uigYJwYVuBVHVjmUfmwh-7" value="" style="endArrow=classic;html=1;rounded=0;exitX=0.5;exitY=1;exitDx=0;exitDy=0;exitPerimeter=0;entryX=0.5;entryY=0;entryDx=0;entryDy=0;" edge="1" parent="1" source="uigYJwYVuBVHVjmUfmwh-5" target="uigYJwYVuBVHVjmUfmwh-6">
          <mxGeometry width="50" height="50" relative="1" as="geometry">
            <mxPoint x="290" y="290" as="sourcePoint" />
            <mxPoint x="340" y="240" as="targetPoint" />
          </mxGeometry>
        </mxCell>
        <mxCell id="uigYJwYVuBVHVjmUfmwh-8" value="" style="endArrow=classic;html=1;rounded=0;exitX=0.5;exitY=1;exitDx=0;exitDy=0;entryX=0.5;entryY=0;entryDx=0;entryDy=0;" edge="1" parent="1" source="uigYJwYVuBVHVjmUfmwh-6" target="uigYJwYVuBVHVjmUfmwh-4">
          <mxGeometry width="50" height="50" relative="1" as="geometry">
            <mxPoint x="191" y="329" as="sourcePoint" />
            <mxPoint x="191" y="359" as="targetPoint" />
            <Array as="points">
              <mxPoint x="320" y="320" />
              <mxPoint x="160" y="320" />
            </Array>
          </mxGeometry>
        </mxCell>
        <mxCell id="uigYJwYVuBVHVjmUfmwh-9" value="" style="endArrow=classic;html=1;rounded=0;exitX=0.5;exitY=1;exitDx=0;exitDy=0;" edge="1" parent="1" source="uigYJwYVuBVHVjmUfmwh-4">
          <mxGeometry width="50" height="50" relative="1" as="geometry">
            <mxPoint x="290" y="520" as="sourcePoint" />
            <mxPoint x="160" y="450" as="targetPoint" />
          </mxGeometry>
        </mxCell>
        <mxCell id="uigYJwYVuBVHVjmUfmwh-12" value="Request Validation&lt;br&gt;Authentication&lt;br&gt;Authorization&lt;br&gt;TLS Termination&lt;br&gt;Encryption&lt;br&gt;Rate Limiting&lt;br&gt;Auditing" style="text;html=1;strokeColor=none;fillColor=none;align=left;verticalAlign=middle;whiteSpace=wrap;rounded=0;" vertex="1" parent="1">
          <mxGeometry x="110" y="450" width="110" height="110" as="geometry" />
        </mxCell>
        <mxCell id="uigYJwYVuBVHVjmUfmwh-14" value="" style="endArrow=classic;html=1;rounded=0;exitX=1;exitY=0.5;exitDx=0;exitDy=0;" edge="1" parent="1" source="uigYJwYVuBVHVjmUfmwh-4">
          <mxGeometry width="50" height="50" relative="1" as="geometry">
            <mxPoint x="330" y="480" as="sourcePoint" />
            <mxPoint x="260" y="390" as="targetPoint" />
          </mxGeometry>
        </mxCell>
        <mxCell id="uigYJwYVuBVHVjmUfmwh-15" value="" style="endArrow=classic;html=1;rounded=0;exitX=1;exitY=0.5;exitDx=0;exitDy=0;entryX=0;entryY=0.5;entryDx=0;entryDy=0;" edge="1" parent="1" source="uigYJwYVuBVHVjmUfmwh-3" target="uigYJwYVuBVHVjmUfmwh-4">
          <mxGeometry width="50" height="50" relative="1" as="geometry">
            <mxPoint x="20" y="530" as="sourcePoint" />
            <mxPoint x="70" y="480" as="targetPoint" />
          </mxGeometry>
        </mxCell>
        <mxCell id="uigYJwYVuBVHVjmUfmwh-16" value="Message Sender Service" style="rounded=1;whiteSpace=wrap;html=1;" vertex="1" parent="1">
          <mxGeometry x="420" y="360" width="120" height="60" as="geometry" />
        </mxCell>
        <mxCell id="uigYJwYVuBVHVjmUfmwh-17" value="" style="endArrow=classic;html=1;rounded=0;entryX=0.5;entryY=0;entryDx=0;entryDy=0;" edge="1" parent="1" target="uigYJwYVuBVHVjmUfmwh-16">
          <mxGeometry width="50" height="50" relative="1" as="geometry">
            <mxPoint x="320" y="320" as="sourcePoint" />
            <mxPoint x="330" y="210" as="targetPoint" />
            <Array as="points">
              <mxPoint x="480" y="320" />
            </Array>
          </mxGeometry>
        </mxCell>
        <mxCell id="uigYJwYVuBVHVjmUfmwh-20" value="Subscriber" style="rounded=1;whiteSpace=wrap;html=1;" vertex="1" parent="1">
          <mxGeometry x="580" y="360" width="120" height="60" as="geometry" />
        </mxCell>
        <mxCell id="uigYJwYVuBVHVjmUfmwh-22" value="Retry/Dedup" style="text;html=1;strokeColor=none;fillColor=none;align=center;verticalAlign=middle;whiteSpace=wrap;rounded=0;" vertex="1" parent="1">
          <mxGeometry x="350" y="330" width="60" height="30" as="geometry" />
        </mxCell>
        <mxCell id="uigYJwYVuBVHVjmUfmwh-25" value="" style="endArrow=classic;html=1;rounded=0;exitX=1;exitY=0.5;exitDx=0;exitDy=0;entryX=0;entryY=0.5;entryDx=0;entryDy=0;" edge="1" parent="1" source="uigYJwYVuBVHVjmUfmwh-16" target="uigYJwYVuBVHVjmUfmwh-20">
          <mxGeometry width="50" height="50" relative="1" as="geometry">
            <mxPoint x="580" y="370" as="sourcePoint" />
            <mxPoint x="630" y="320" as="targetPoint" />
          </mxGeometry>
        </mxCell>
        <mxCell id="uigYJwYVuBVHVjmUfmwh-26" value="Order" style="text;html=1;strokeColor=none;fillColor=none;align=center;verticalAlign=middle;whiteSpace=wrap;rounded=0;" vertex="1" parent="1">
          <mxGeometry x="-100" y="330" width="60" height="30" as="geometry" />
        </mxCell>
        <mxCell id="uigYJwYVuBVHVjmUfmwh-27" value="" style="rounded=1;whiteSpace=wrap;html=1;" vertex="1" parent="1">
          <mxGeometry x="260" y="360" width="120" height="340" as="geometry" />
        </mxCell>
        <mxCell id="uigYJwYVuBVHVjmUfmwh-13" value="Temp Storage" style="shape=cylinder3;whiteSpace=wrap;html=1;boundedLbl=1;backgroundOutline=1;size=15;" vertex="1" parent="1">
          <mxGeometry x="290" y="480" width="60" height="80" as="geometry" />
        </mxCell>
        <mxCell id="uigYJwYVuBVHVjmUfmwh-28" value="In-Memory Cache" style="rounded=1;whiteSpace=wrap;html=1;" vertex="1" parent="1">
          <mxGeometry x="275" y="415" width="90" height="40" as="geometry" />
        </mxCell>
        <mxCell id="uigYJwYVuBVHVjmUfmwh-30" value="" style="endArrow=classic;html=1;rounded=0;entryX=0;entryY=0.5;entryDx=0;entryDy=0;" edge="1" parent="1" target="uigYJwYVuBVHVjmUfmwh-16">
          <mxGeometry width="50" height="50" relative="1" as="geometry">
            <mxPoint x="380" y="390" as="sourcePoint" />
            <mxPoint x="500" y="460" as="targetPoint" />
          </mxGeometry>
        </mxCell>
        <mxCell id="uigYJwYVuBVHVjmUfmwh-19" value="&lt;br&gt;&lt;div style=&quot;text-align: left;&quot;&gt;&lt;span style=&quot;background-color: initial;&quot;&gt;NoSql&lt;/span&gt;&lt;/div&gt;&lt;div style=&quot;text-align: left;&quot;&gt;&lt;span style=&quot;background-color: initial;&quot;&gt;Sharding/Replication&lt;/span&gt;&lt;/div&gt;&lt;div style=&quot;text-align: left;&quot;&gt;&lt;span style=&quot;background-color: initial;&quot;&gt;Use Counting Semaphore to restrict too many&amp;nbsp; access&lt;/span&gt;&lt;/div&gt;" style="text;html=1;strokeColor=none;fillColor=none;align=center;verticalAlign=middle;whiteSpace=wrap;rounded=0;" vertex="1" parent="1">
          <mxGeometry x="275" y="590" width="90" height="90" as="geometry" />
        </mxCell>
        <mxCell id="uigYJwYVuBVHVjmUfmwh-31" value="Push vs Pull" style="text;html=1;strokeColor=none;fillColor=none;align=center;verticalAlign=middle;whiteSpace=wrap;rounded=0;" vertex="1" parent="1">
          <mxGeometry x="530" y="420" width="70" height="30" as="geometry" />
        </mxCell>
        <mxCell id="uigYJwYVuBVHVjmUfmwh-32" value="Service Discovery&lt;br&gt;Leader Election" style="text;html=1;strokeColor=none;fillColor=none;align=left;verticalAlign=middle;whiteSpace=wrap;rounded=0;" vertex="1" parent="1">
          <mxGeometry x="380" y="280" width="120" height="30" as="geometry" />
        </mxCell>
        <mxCell id="uigYJwYVuBVHVjmUfmwh-33" value="Storage Service&lt;br&gt;(Distributed)" style="text;html=1;strokeColor=none;fillColor=none;align=center;verticalAlign=middle;whiteSpace=wrap;rounded=0;" vertex="1" parent="1">
          <mxGeometry x="275" y="370" width="90" height="30" as="geometry" />
        </mxCell>
        <mxCell id="uigYJwYVuBVHVjmUfmwh-34" value="Notification/MessageQueue" style="text;html=1;strokeColor=none;fillColor=none;align=center;verticalAlign=middle;whiteSpace=wrap;rounded=0;fontStyle=1;fontSize=15;" vertex="1" parent="1">
          <mxGeometry x="-190" y="220" width="210" height="70" as="geometry" />
        </mxCell>
      </root>
    </mxGraphModel>
  </diagram>
</mxfile>
